<?xml version="1.0" encoding="utf-8"?>
<!-- Generator: Adobe Illustrator 23.0.6, SVG Export Plug-In . SVG Version: 6.00 Build 0)  -->
<svg version="1.1" id="Layer_1" xmlns="http://www.w3.org/2000/svg" xmlns:xlink="http://www.w3.org/1999/xlink" x="0px" y="0px"
	 viewBox="0 0 148 61.8" style="enable-background:new 0 0 148 61.8;" xml:space="preserve">
<style type="text/css">
	.st0{fill:#F8A113;}
	.st1{fill:#21567E;}
	.st2{fill:#12A37A;}
	.st3{fill:#3BC2EE;}
	.st4{fill:#026FC2;}
	.st5{enable-background:new    ;}
	.st6{fill:#9DAFBD;}
</style>
<g id="Group_3" transform="translate(-117 -45.679)">
	<g id="Logo" transform="translate(147.875 45.679) rotate(45)">
		<g id="Logo_Blue_Small">
			<g id="Logo_Blue_Small-2">
				<path id="Rectangle" class="st0" d="M37.4,15.6L37.4,15.6c3.4,0,6.2,2.8,6.2,6.2l0,0c0,3.4-2.8,6.2-6.2,6.2l0,0
					c-3.4,0-6.2-2.8-6.2-6.2l0,0C31.2,18.4,34,15.6,37.4,15.6z"/>
				<path id="Rectangle-2" class="st1" d="M6.2,15.6L6.2,15.6c3.4,0,6.2,2.8,6.2,6.2l0,0c0,3.4-2.8,6.2-6.2,6.2l0,0
					c-3.4,0-6.2-2.8-6.2-6.2l0,0C0,18.4,2.8,15.6,6.2,15.6z"/>
				<path id="Rectangle-3" class="st2" d="M21.8,31.2L21.8,31.2c3.4,0,6.2,2.8,6.2,6.2l0,0c0,3.4-2.8,6.2-6.2,6.2l0,0
					c-3.4,0-6.2-2.8-6.2-6.2l0,0C15.6,34,18.4,31.2,21.8,31.2z"/>
				<path id="Rectangle-4" class="st3" d="M21.8,0c3.4,0,6.2,2.8,6.2,6.2s-2.8,6.2-6.2,6.2s-6.2-2.8-6.2-6.2c0,0,0,0,0,0
					C15.6,2.8,18.4,0,21.8,0z"/>
			</g>
		</g>
	</g>
	<g id="Logo-2" transform="translate(154.191 70.238) rotate(90)">
		<g id="Logo_Blue_Small-3">
			<g id="Logo_Blue_Small-4">
				<path id="Rectangle-5" class="st1" d="M10.8,4.5L10.8,4.5c1,0,1.8,0.8,1.8,1.8v0c0,1-0.8,1.8-1.8,1.8h0C9.8,8.1,9,7.3,9,6.3v0
					C9,5.3,9.8,4.5,10.8,4.5z"/>
				<path id="Rectangle-6" class="st1" d="M1.8,4.5L1.8,4.5c1,0,1.8,0.8,1.8,1.8v0c0,1-0.8,1.8-1.8,1.8h0C0.8,8.1,0,7.3,0,6.3v0
					C0,5.3,0.8,4.5,1.8,4.5z"/>
				<path id="Rectangle-7" class="st4" d="M6.3,9L6.3,9c1,0,1.8,0.8,1.8,1.8v0c0,1-0.8,1.8-1.8,1.8h0c-1,0-1.8-0.8-1.8-1.8v0
					C4.5,9.8,5.3,9,6.3,9z"/>
				<path id="Rectangle-8" class="st4" d="M6.3,0L6.3,0c1,0,1.8,0.8,1.8,1.8v0c0,1-0.8,1.8-1.8,1.8h0c-1,0-1.8-0.8-1.8-1.8v0
					C4.5,0.8,5.3,0,6.3,0z"/>
			</g>
		</g>
	</g>
	<g class="st5">
		<path class="st1" d="M189.3,87h-1.8v-9.9h-5V87h-1.8V66.4h1.8v9.1h5v-9.1h1.8V87z"/>
		<path class="st1" d="M201.1,85.5c0,0.4-0.1,0.8-0.4,1.1c-0.3,0.3-0.6,0.4-1.1,0.4H194c-0.4,0-0.8-0.1-1.1-0.4
			c-0.3-0.3-0.4-0.6-0.4-1.1V66.4h1.8v19h4.9v-19h1.8V85.5z"/>
		<path class="st1" d="M212.7,85.5c0,0.4-0.1,0.8-0.4,1.1c-0.3,0.3-0.6,0.4-1.1,0.4h-6.8V66.4h6.8c0.4,0,0.8,0.1,1.1,0.4
			c0.3,0.3,0.4,0.6,0.4,1.1V74c0,0.5-0.2,1-0.7,1.4c-0.5,0.3-1,0.6-1.5,0.9l1.6,1c0.5,0.3,0.7,0.7,0.7,1.3V85.5z M210.8,74.2V68
			h-4.5v7.4h2.7L210.8,74.2z M210.9,85.4v-7.1L209,77h-2.7v8.3H210.9z"/>
		<path class="st1" d="M217.5,87h-2v-2.3h2V87z"/>
	</g>
	<g class="st5">
		<path class="st6" d="M227.1,85.5c0,1-0.5,1.5-1.5,1.5h-4c-1,0-1.5-0.5-1.5-1.5v-2.9h1.7v2.9h3.5v-2.6l-4.6-3.8
			c-0.4-0.4-0.7-0.8-0.7-1.4v-2.1c0-1,0.5-1.5,1.5-1.5h4c1,0,1.5,0.5,1.5,1.5v2.6h-1.7v-2.5h-3.5v2.2l4.6,3.8
			c0.4,0.3,0.6,0.8,0.6,1.4V85.5z"/>
		<path class="st6" d="M234.5,87H232c-1,0-1.5-0.5-1.5-1.5v-9.8H229v-1.5h1.5v-4h1.7v4h2.2v1.5h-2.2v9.7h2.2V87z"/>
		<path class="st6" d="M244.1,85.5c0,1-0.5,1.5-1.5,1.5h-4.4c-1,0-1.5-0.5-1.5-1.5v-9.8c0-1,0.5-1.5,1.5-1.5h4.4
			c1,0,1.5,0.5,1.5,1.5V85.5z M242.3,85.5v-9.7h-3.9v9.7H242.3z"/>
		<path class="st6" d="M253.7,78.4h-1.7v-2.6l-3.2,0.1V87h-1.8V74.2h1.8v0.4c0.6-0.1,1.2-0.2,1.8-0.3c0.7-0.1,1.3-0.2,1.8-0.2
			c1,0,1.4,0.5,1.4,1.4V78.4z"/>
		<path class="st6" d="M263.1,85.5c0,1-0.5,1.5-1.5,1.5h-4.2c-1,0-1.5-0.5-1.5-1.5v-9.8c0-1,0.5-1.5,1.5-1.5h4.2
			c1,0,1.5,0.5,1.5,1.5v4.6l-0.6,0.6h-4.9v4.6h3.8v-2.3h1.7V85.5z M261.4,79.5v-3.9h-3.8v3.9H261.4z"/>
	</g>
</g>
</svg>
