<svg xmlns="http://www.w3.org/2000/svg" xmlns:xlink="http://www.w3.org/1999/xlink" width="576" height="640" viewBox="0 0 576 640">
  <defs>
    <clipPath id="clip-path">
      <rect id="Rectangle_5" data-name="Rectangle 5" width="576" height="640" transform="translate(487.937 1126.62)" fill="#fff" stroke="#707070" stroke-width="1"/>
    </clipPath>
  </defs>
  <g id="Mask_Group_1" data-name="Mask Group 1" transform="translate(-487.937 -1126.62)" opacity="0.03" clip-path="url(#clip-path)">
    <g id="xbox" transform="translate(488.053 1159.162)">
      <path id="Path_2" data-name="Path 2" d="M154.291,50.891A425.2,425.2,0,0,1,241.6,97.8a17.966,17.966,0,0,0,20.577,0,425.485,425.485,0,0,1,87.31-46.947,17.973,17.973,0,0,0-.18-33.528c-60.653-23.06-134.221-23.06-194.837,0a18,18,0,0,0-.18,33.564Z" transform="translate(35.905 -0.032)" fill="#fff"/>
      <path id="Path_3" data-name="Path 3" d="M450.867,41.372a17.935,17.935,0,0,0-19.174-.755,788.9,788.9,0,0,0-96.807,65.905,18.005,18.005,0,0,0-1.223,27.089c63.6,60.617,151.812,246.389,171.994,331.9-43.889-74.179-141.631-248.763-205.63-308.445a17.994,17.994,0,0,0-24.535,0c-64.07,59.718-161.525,234.445-205.414,308.66C90.26,380.251,178.217,194.263,241.856,133.61a18,18,0,0,0-1.151-27.089A791.652,791.652,0,0,0,143.9,40.617a18.155,18.155,0,0,0-19.21.755,287.814,287.814,0,1,0,326.18,0Z" transform="translate(0 9.559)" fill="#fff"/>
    </g>
  </g>
</svg>
